<?xml version="1.0" encoding="UTF-8"?>
<svg width="30px" height="22px" viewBox="0 0 30 22" version="1.1" xmlns="http://www.w3.org/2000/svg" xmlns:xlink="http://www.w3.org/1999/xlink">
    <title>ED8BCF03-0718-4586-9D0E-89DE22E8D0BC</title>
    <defs>
        <linearGradient x1="50%" y1="0%" x2="50%" y2="100%" id="linearGradient-1">
            <stop stop-color="#1C1C21" offset="0%"></stop>
            <stop stop-color="#009EE2" offset="100%"></stop>
        </linearGradient>
    </defs>
    <g id="Page-1" stroke="none" stroke-width="1" fill="none" fill-rule="evenodd">
        <g id="Home" transform="translate(-392.000000, -1999.000000)" fill="url(#linearGradient-1)" fill-rule="nonzero">
            <g id="arrow-2" transform="translate(407.000000, 2010.000000) rotate(-90.000000) translate(-407.000000, -2010.000000) translate(396.000000, 1995.000000)">
                <path d="M21.9103581,18.836501 C21.8288031,18.6421053 21.6384918,18.5152534 21.4273016,18.5152534 L15.6986021,18.5152534 L15.6986021,0.519834308 C15.6986021,0.232894737 15.4643765,0 15.1757973,0 L6.81116569,0 C6.52258647,0 6.2883609,0.232894737 6.2883609,0.519834308 L6.2883609,18.5153021 L0.537704261,18.5153021 C0.326514063,18.5153021 0.136202729,18.642154 0.0546477304,18.8355263 C-0.0258780284,19.029922 0.0180362016,19.25346 0.167570036,19.4021442 L10.5971997,29.8068226 C10.6954676,29.9045322 10.8282885,29.9596491 10.9673339,29.9596491 C11.1063793,29.9596491 11.2392002,29.9045322 11.3374681,29.807846 L21.7974358,19.4031676 C21.9469696,19.2544347 21.9919131,19.0309454 21.9103581,18.836501 Z" id="Path"></path>
            </g>
        </g>
    </g>
</svg>