<?xml version="1.0" encoding="UTF-8"?>
<svg width="14px" height="20px" viewBox="0 0 14 20" version="1.1" xmlns="http://www.w3.org/2000/svg" xmlns:xlink="http://www.w3.org/1999/xlink">
    <title>C6A7BAAB-8604-4B0E-9292-A05234EC195D</title>
    <g id="Page-1" stroke="none" stroke-width="1" fill="none" fill-rule="evenodd">
        <g id="Home" transform="translate(-1358.000000, -3477.000000)" fill="#FFFFFF" fill-rule="nonzero">
            <g id="up" transform="translate(1340.000000, 3462.000000)">
                <path d="M34.7275999,24.3310923 L28.7759385,18.2770301 C28.4128128,17.9076566 27.8238959,17.9076566 27.4607702,18.2770301 C27.09757,18.6464793 27.09757,19.2453774 27.4607702,19.6148265 L31.8249003,24.0540433 L15.9299471,24.0540433 C15.4163931,24.0540433 15,24.4776006 15,25 C15,25.5223048 15.4163931,25.9459378 15.9299471,25.9459378 L31.8249003,25.9459378 L27.460919,30.3851546 C27.0977188,30.7546037 27.0977188,31.3535018 27.460919,31.722951 C27.6424446,31.9075242 27.8805111,32 28.1185032,32 C28.3564952,32 28.5944873,31.9075242 28.7760873,31.722951 L34.7275999,25.6688887 C35.0908,25.2994396 35.0908,24.7005415 34.7275999,24.3310923 Z" id="arrow" transform="translate(25.000000, 25.000000) rotate(-90.000000) translate(-25.000000, -25.000000) "></path>
            </g>
        </g>
    </g>
</svg>