<?xml version="1.0" encoding="UTF-8"?>
<svg width="192px" height="36px" viewBox="0 0 192 36" version="1.1" xmlns="http://www.w3.org/2000/svg" xmlns:xlink="http://www.w3.org/1999/xlink">
    <title>53DE2726-520F-462C-BF24-6FDEECBD417C</title>
    <defs>
        <linearGradient x1="85.356405%" y1="0%" x2="9.93418718%" y2="115.630668%" id="linearGradient-1">
            <stop stop-color="#00A1E4" offset="0%"></stop>
            <stop stop-color="#0037A9" offset="100%"></stop>
        </linearGradient>
    </defs>
    <g id="website" stroke="none" stroke-width="1" fill="none" fill-rule="evenodd">
        <g id="Home" transform="translate(-50.000000, -22.000000)">
            <g id="rzt-logo_default" transform="translate(50.000000, 22.000000)">
                <path d="M43.144564,17.402179 C44.0405659,17.402179 44.7493568,17.2250486 45.270958,16.8707825 C45.7925591,16.5165165 46.0533557,15.877582 46.0533557,14.9539597 C46.0533557,13.9607495 45.6885604,13.2838584 44.9589589,12.9232661 C44.568558,12.7334808 44.0469647,12.6385895 43.3941633,12.6385895 L36.8181818,12.6385895 L36.8181818,17.402179 L43.144564,17.402179 Z M36.8181818,11.0159325 L43.3461634,11.0159325 C44.4213658,11.0159325 45.3077544,11.1709215 46.0053559,11.4809044 C47.3301588,12.0755653 47.9925503,13.173141 47.9925503,14.7736644 C47.9925503,15.6087202 47.8181526,16.2919373 47.4693518,16.8233365 C47.120551,17.3547355 46.6325573,17.7817463 46.0053559,18.1043814 C46.5557571,18.3257978 46.9701518,18.6167976 47.2485524,18.9773899 C47.526953,19.3379821 47.682151,19.9231449 47.7141511,20.7328959 L47.7813509,22.6022728 C47.8005509,23.1336718 47.8453503,23.5290522 47.9157505,23.7884255 C48.0309507,24.2312581 48.2357482,24.5159325 48.5301487,24.6424555 L48.5301487,24.9555998 L46.1877554,24.9555998 C46.1237552,24.8354024 46.0725559,24.6804133 46.0341558,24.490628 C45.9957557,24.3008426 45.9637562,23.9339296 45.9381561,23.3898782 L45.8229564,21.0650188 C45.7781563,20.1540489 45.4357607,19.5435817 44.7957593,19.2335989 C44.4309586,19.062792 43.8581659,18.9773899 43.0773642,18.9773899 L38.7285765,18.9773899 L38.7285765,24.9555998 L36.8181818,24.9555998 L36.8181818,11.0159325 Z M57.9573221,11.0159325 L60.1173161,11.0159325 L65.2341016,24.9555998 L63.1413075,24.9555998 L58.9221195,13.0845829 L54.6069316,24.9555998 L52.6485372,24.9555998 L57.9573221,11.0159325 Z M68.997291,23.3898782 L77.6468666,12.6765464 L69.6308892,12.6765464 L69.6308892,11.0159325 L80.1044597,11.0159325 L80.1044597,12.6385895 L71.4068842,23.294986 L80.1044597,23.294986 L80.1044597,24.9555998 L68.997291,24.9555998 L68.997291,23.3898782 Z M91.2116282,10.6363636 C93.7012339,10.6363636 95.5444103,11.4271242 96.741213,13.0086691 C97.6756143,14.2422742 98.1428084,15.8206323 98.1428084,17.743791 C98.1428084,19.8251042 97.6084152,21.5552884 96.5396131,22.9343955 C95.2852102,24.5538976 93.4964334,25.3636364 91.1732284,25.3636364 C89.0036237,25.3636364 87.2980455,24.6551149 86.0564428,23.2380506 C84.9492404,21.8715958 84.3956475,20.1445746 84.3956475,18.0569354 C84.3956475,16.1717338 84.8692415,14.5585822 85.8164435,13.217432 C87.0324461,11.4967112 88.8308231,10.6363636 91.2116282,10.6363636 Z M91.4036277,23.6745548 C93.0868316,23.6745548 94.3044155,23.0783213 95.0564175,21.8858365 C95.8084195,20.6933516 96.1844143,19.3221727 96.1844143,17.7722587 C96.1844143,16.1337781 95.7508194,14.8147894 94.883618,13.815253 C94.0164158,12.8157166 92.8308312,12.3159559 91.3268279,12.3159559 C89.8676247,12.3159559 88.67724,12.810972 87.755638,13.8010192 C86.8340361,14.7910663 86.3732419,16.2508104 86.3732419,18.1802952 C86.3732419,19.7238831 86.7684369,21.025475 87.5588386,22.0851101 C88.3492403,23.1447453 89.6308239,23.6745548 91.4036277,23.6745548 L91.4036277,23.6745548 Z M110.046775,17.402179 C110.942777,17.402179 111.651568,17.2250486 112.17317,16.8707825 C112.69477,16.5165165 112.955567,15.877582 112.955567,14.9539597 C112.955567,13.9607495 112.590771,13.2838584 111.86117,12.9232661 C111.470769,12.7334808 110.949176,12.6385895 110.296375,12.6385895 L103.720393,12.6385895 L103.720393,17.402179 L110.046775,17.402179 Z M103.720393,11.0159325 L110.248375,11.0159325 C111.323577,11.0159325 112.209966,11.1709215 112.907567,11.4809044 C114.23237,12.0755653 114.894762,13.173141 114.894762,14.7736644 C114.894762,15.6087202 114.720363,16.2919373 114.371563,16.8233365 C114.022762,17.3547355 113.534768,17.7817463 112.907567,18.1043814 C113.457968,18.3257978 113.872363,18.6167976 114.150763,18.9773899 C114.429164,19.3379821 114.584362,19.9231449 114.616362,20.7328959 L114.683562,22.6022728 C114.702762,23.1336718 114.747561,23.5290522 114.817962,23.7884255 C114.933162,24.2312581 115.137959,24.5159325 115.43236,24.6424555 L115.43236,24.9555998 L113.089967,24.9555998 C113.025966,24.8354024 112.974767,24.6804133 112.936367,24.490628 C112.897966,24.3008426 112.865967,23.9339296 112.840367,23.3898782 L112.725168,21.0650188 C112.680367,20.1540489 112.337972,19.5435817 111.69797,19.2335989 C111.33317,19.062792 110.760377,18.9773899 109.979575,18.9773899 L105.630788,18.9773899 L105.630788,24.9555998 L103.720393,24.9555998 L103.720393,17.402179 L103.720393,12.6385895 L103.720393,11.0159325 Z M131.041916,10.9684864 L131.041916,13.4451734 L126.808328,13.4451734 L126.808328,24.9555998 L123.832336,24.9555998 L123.832336,13.4451734 L119.579549,13.4451734 L119.579549,10.9684864 L131.041916,10.9684864 Z M135.822703,24.9555998 L135.822703,10.9684864 L138.750694,10.9684864 L138.750694,16.3014292 L144.280279,16.3014292 L144.280279,10.9684864 L147.21787,10.9684864 L147.21787,24.9555998 L144.280279,24.9555998 L144.280279,18.7116916 L138.750694,18.7116916 L138.750694,24.9555998 L135.822703,24.9555998 Z M155.819446,24.9555998 L152.881854,24.9555998 L152.881854,10.9684864 L155.819446,10.9684864 L155.819446,24.9555998 Z M161.59863,10.9684864 L164.699421,10.9684864 L170.334605,20.7328959 L170.334605,10.9684864 L173.089797,10.9684864 L173.089797,24.9555998 L170.133006,24.9555998 L164.353822,15.0203842 L164.353822,24.9555998 L161.59863,24.9555998 L161.59863,10.9684864 Z M178.96498,10.9684864 L181.873772,10.9684864 L181.873772,16.7284443 L187.336156,10.9684864 L191.156946,10.9684864 L185.358563,16.7284443 L191.454545,24.9555998 L187.652956,24.9555998 L183.284968,18.8445408 L181.873772,20.2774133 L181.873772,24.9555998 L178.96498,24.9555998 L178.96498,10.9684864 Z" id="a" fill="#232323" fill-rule="nonzero"></path>
                <path d="M24.0946196,9.62068966 L24.057551,28.9307913 L8.71113171,28.9307913 L4.11404244e-14,36 L24.0946196,9.62068966 Z M30.2727273,-1.28608235e-14 L6.1781076,26.3793103 L6.1781076,7.09640603 L21.5245269,7.09640603 L30.2727273,-1.28608235e-14 Z" id="Combined-Shape" fill="url(#linearGradient-1)"></path>
            </g>
        </g>
    </g>
</svg>